<?xml version="1.0" standalone="yes"?>
<svg xmlns="http://www.w3.org/2000/svg" width="1380" height="1380">
<path style="fill:#010102; stroke:none;" d="M137 116L136 121C137.879 119.377 137.916 118.3 137 116M746 255C730.14 254.673 714.669 248.326 699 246.289C693.393 245.561 684.527 245.176 680.758 250.39C677.185 255.333 678 264.241 678 270C668.006 270.083 657.94 271.84 648 272.831C618.938 275.728 590.028 279.791 561 283.05C549.166 284.379 526.185 284.24 528 301C521.188 302.558 512.027 306.594 505 305.556C502.4 305.172 500.342 303.357 497.91 302.478C494.379 301.203 490.709 301.031 487 301C492.13 295.565 504.749 295.848 507 289C514.972 293.883 518.89 290.303 526.129 286.785C530.738 284.544 536.11 283.226 541 281.717C571.211 272.392 600.462 261.247 632 257C630.337 251.146 624.584 250.143 622 245C613.356 246.093 604.665 246.139 595.999 247.156C573.06 249.848 549.171 254.532 527 261.001C519.255 263.26 510.849 266.552 504.184 271.185C500.406 273.812 498.542 277.874 493.996 279.517C471.938 287.488 446.892 289.666 423.985 294.35C410.628 297.081 397.255 300.286 384.576 305.425C379.002 307.685 372.044 310.859 368.603 316.04C365.822 320.229 366.217 327.258 367 332C350.417 327.474 335.276 319.901 318 317.428C312.486 316.639 307.419 318.226 302 318C300.445 321.91 297.782 326.631 299.018 330.996C300.01 334.494 303.266 336.772 306.001 338.87C311.613 343.174 317.466 349.36 324 352L324 355C318.085 357.636 314.267 362.131 310.116 366.941C305.935 371.785 298.398 371.022 295.319 377.043C292.965 381.646 294.67 386.818 299.055 389.327C311.107 396.226 325.528 399.62 338 406C333.719 410.281 329.293 414.459 325.285 419C322.588 422.057 319.982 425.926 316 427.397C306.447 430.924 294.948 424.514 284.91 426.731C280.069 427.8 276.726 430.107 275.352 435.004C274.653 437.493 274.896 440.461 273.322 442.624C270.661 446.281 264.528 450.691 260.701 453.196C258.37 454.722 255.703 455.604 254.229 458.15C252.223 461.613 253.325 466.331 254 470L269 474L269 476C257.849 480.058 247.257 487.066 237 492.985C232.256 495.723 226.891 497.678 224.434 503.001C222.262 507.707 224.424 511.559 226 516C218.766 517.763 213.125 523.349 207 527.333C196.384 534.239 183.439 540.729 174.25 549.472C170.887 552.672 171.939 557.456 168 560.75C161.659 566.052 151.657 569.114 153.389 579C153.679 580.656 153.879 582.976 155.333 584.056C157.574 585.718 161.397 584.901 164 585.028C168.332 585.238 175.77 587.422 179.694 584.889C183.785 582.249 186.276 575.505 190 572.083C192.916 569.404 196.824 567.81 199.389 564.778C200.703 563.224 201.357 560.718 203 562L212 556C212 561.136 213.528 569.226 210.972 573.829C208.342 578.567 201.969 582.523 197.986 586.167C186.814 596.388 175.447 607.296 167.079 620C163.977 624.708 159.834 630.222 159.249 636C158.064 647.709 168.464 650.788 178 649.246C182.251 648.559 189.234 646.605 190.044 652.85C190.379 655.43 189.261 658.456 188.872 661.004C187.795 668.054 186.294 675.032 184.79 682C179.899 704.666 173.247 727.111 169.435 750C167.686 760.504 166.172 773.669 169.326 784C170.938 789.284 175.689 793.628 176.657 799C177.551 803.954 175.317 810.028 174.64 814.961C173.687 821.917 174 828.997 174 836C162.073 831.1 150.879 826.449 138 824.579C130.1 823.432 121.995 822.371 114 823.171C108.978 823.673 103.676 825.036 99 826.929C74.0891 837.014 70.6879 868.981 67.5764 892.001C65.7994 905.147 66 918.737 66 932C66 964.443 69.2769 996.54 77.4776 1028C81.9741 1045.25 89.9163 1061.81 94.9645 1079C98.6284 1091.48 100.889 1105.02 101.816 1118C102.182 1123.13 100.96 1127.84 102 1133C103.44 1129.57 103 1125.7 103 1122C106.613 1128.77 105.039 1138.4 106 1146L108 1146C108.639 1140.95 109 1136.1 109 1131C113.168 1137.12 115.304 1144.53 119.001 1151C128.212 1167.13 145.344 1188.41 141.931 1208.29C140.457 1216.87 135.733 1224.06 128 1228.08C125.107 1229.59 121.789 1230.02 119.001 1231.72C114.209 1234.65 109.779 1240.11 112.407 1246C115.756 1253.5 125.025 1256.11 132 1258.81C144.183 1263.53 156.49 1267.53 169 1271.28C174.979 1273.07 182.765 1273.75 187.83 1277.53C196.904 1284.31 195.024 1293.94 196.427 1304C199.897 1328.87 204.983 1354.84 204 1380L225 1380C225 1332.73 213.806 1286.35 214.001 1239C214.103 1214.26 217.781 1189.52 220.715 1165C224.122 1136.53 226.706 1107.65 227.961 1079C228.403 1068.9 225.028 1059.88 225 1050C223.1 1053.17 223.031 1056.35 223 1060C219.694 1053.14 219.41 1038.83 227 1035C226.401 1031.52 225.128 1028.34 224 1025C226.094 1024.4 227.83 1023.98 230 1024C228.577 1018.45 225.308 1013.98 225.108 1008C224.975 1004.02 226.95 1000.81 227.66 997C229.389 987.737 230.157 977.42 230.914 968C231.285 963.388 230.916 950.774 235.318 948.103C237.862 946.559 242.204 947.333 245 947.611C249.819 948.09 254.59 947.967 259.424 947.823C270.694 947.485 281.775 945.896 293 945.089C301.623 944.469 310.753 945.597 319 943C317.692 937.693 317.376 931.872 312.532 928.394C307.305 924.642 299.06 926 293 926C275.298 926 257.773 929 240 929L240 922C259.871 920.531 280.116 921.549 300 922.911C308.006 923.459 316.135 923.128 324 925C321.221 936.278 320.646 947.489 319.789 959C316.854 998.444 321.095 1037.84 334.95 1075C342.564 1095.42 353.304 1117.17 374 1127C371.87 1130.81 367.923 1137.37 370.118 1141.87C372.457 1146.66 380.412 1147.61 385 1148.65C398.604 1151.75 412.272 1154.94 426 1157.42C488.857 1168.78 553.433 1168.03 617 1170.42C634.402 1171.08 654.452 1169.15 671 1163.67C676.775 1161.75 686.669 1161.79 686 1154C687.195 1155.22 687.316 1155.42 688 1157C694.3 1154.71 699.743 1149.05 706.015 1147.37C710.304 1146.23 716.473 1147.09 721 1147L720 1144C731.476 1146.8 746.348 1128.37 730.001 1124.73C727.695 1124.21 725.304 1124.73 723 1125C723.735 1115.7 726.79 1107.75 729.64 1099C734.665 1083.58 741.33 1069.44 750.721 1056C755.253 1049.51 760.152 1043.26 764.989 1037C769.206 1031.54 773.155 1027.15 772 1020C758.246 1020.01 749.392 1030.45 741.575 1040.71C727.136 1059.67 712.748 1079.63 706.36 1103C703.998 1111.64 701.588 1120.21 699.801 1129C698.82 1133.82 698.615 1138.48 694 1141C695.443 1131.78 695.047 1121.93 697.721 1113C705.25 1087.88 721.261 1064.86 735.308 1043C742.333 1032.07 748.405 1017.83 758 1009C760.343 1016.06 767.628 1011.75 772 1009C770.67 1010.75 769.753 1011.67 768 1013C770.943 1013.71 773.947 1012.91 777 1013.09C780.778 1013.31 784.211 1014.39 788 1014C786.777 1012.8 786.58 1012.68 785 1012C790.824 1010.74 797.156 1012.87 803 1013.73C815.922 1015.63 829 1018.66 842 1019.83C853.313 1020.84 866.279 1017.1 877 1021C876.701 1018.61 876.68 1017.96 878 1016C878.683 1021.35 883.762 1015.9 884.69 1013C885.64 1010.03 884.029 1007.02 884.037 1004C884.055 997.482 889.713 995.192 895 993C893.936 989.543 892.331 988.331 889 987C891.242 978.787 894.962 971.208 899.464 964C913.934 940.83 940.955 932.842 966.911 934.75C975.931 935.413 985.13 934.848 994.089 936.116C1017.96 939.493 1042.15 945.81 1066 941L1066 939C1046.95 932.947 1027.63 929.22 1008 925.54C975.398 919.429 943.168 913.457 913 931.453C899.987 939.216 890.17 951.297 882.229 964C879.617 968.178 876.949 979.719 871.867 981.107C869.175 981.843 865.673 980.531 863 980.081C857.08 979.084 850.986 978.527 845 978.089C824.91 976.617 805.052 977.333 785 978.855C776.913 979.469 761.936 975.984 756.862 984.055C754.416 987.945 755.738 991.982 760.044 993.502C765.496 995.427 773.28 994.198 779 993.905C788.688 993.409 798.302 991.252 808 991.015C829.402 990.49 850.731 993.321 872 995C870.663 996.28 869.6 997.03 868 998C868.185 1000.89 868.646 1005.16 866.397 1007.4C864.211 1009.57 860.711 1008.78 858 1008.51C851.307 1007.84 844.691 1007.81 838 1006.87C825.596 1005.13 813.38 1002.19 801 1000.27C791.662 998.833 782.323 998.721 773.004 997.586C762.985 996.367 750.601 992.767 742.289 1000.47C730.489 1011.4 722.165 1027.36 713.95 1041C702.33 1060.29 689.602 1079.1 681.011 1100C676.08 1112 675.988 1125.04 671.536 1137C670.095 1140.87 668.481 1146.41 664.801 1148.71C661.731 1150.62 657.316 1150.97 653.829 1151.73C644.983 1153.66 636.069 1154.99 627 1155C601.459 1155.04 576.189 1153.5 550.714 1152.13C518.899 1150.42 487.622 1148.68 455.996 1144.28C446.924 1143.02 437.986 1141.2 429 1139.4C424.434 1138.48 419.289 1138.03 415.039 1136.03C409.778 1133.56 407.605 1127.8 402.896 1124.63C389.242 1115.45 375.62 1108.94 365.785 1095C357.808 1083.69 354.318 1069.12 350.579 1056C338.62 1014.05 339.572 971.909 345 929C347.762 929.224 350.931 929.187 351.813 925.866C352.676 922.618 349.914 919.789 350.178 916.576C350.747 909.643 357.688 901.494 363.001 897.634C374.408 889.347 389.517 887.467 403 885.711C413.659 884.322 423.703 881.903 434 879.433C436.336 878.872 438.646 879.627 441 879.527C444.949 879.36 449.11 878.118 453 877.389C472.09 873.811 491.607 870.418 511 869.089C559.285 865.783 611.812 874.266 658 887.964C668.276 891.011 679.39 893.343 690 894.869C700.393 896.363 711.892 896.897 719.561 905.105C730.894 917.234 739.914 934.084 737.711 951C736.615 959.409 731.452 967.476 731.729 976C732.033 985.345 738.077 982.992 744.714 982.034C747.5 981.632 750.233 982.062 752.273 979.681C755.633 975.76 756.753 967.901 758.14 963C764.074 942.036 758.318 925.063 747.399 907C742.659 899.159 736.572 890.043 728 886.058C714.311 879.695 696.657 880.291 682 876.627C655.095 869.9 628.449 865.415 601 861.718C575.673 858.306 550.602 855.337 525 856.305C514.253 856.711 503.702 858.16 493 858.911C484.528 859.504 473.919 859.431 466.001 862.843C462.423 864.385 459.899 867.523 457 870C463.822 860.306 473.695 848.957 484 843C481.072 851.788 486.947 849.693 493 848.389C496.451 847.646 499.836 848.024 503 846.142C510.112 841.912 515.955 835.123 523 830.544C543.518 817.208 566.235 805.723 590 800C585.953 793.272 578.346 791.951 571 793.518C557.815 796.33 545.394 803.915 533 809C529.084 803.571 519.385 806.473 514 808.436C497.614 814.408 479.621 825.619 466 836.45C459.288 841.787 453.232 847.399 447.754 854C443.905 858.637 440.556 864.901 434.999 867.686C426.865 871.762 415.812 871.242 407 872.286C389.726 874.331 373.678 876.447 357 881.665C348.249 884.403 341.092 890.245 335.09 897.004C332.62 899.786 330.47 906.038 326.787 907.227C323.499 908.288 318.363 906.867 315 906.424C309.392 905.686 303.643 905.707 298 905.17C280.755 903.529 263.286 904.302 246 903C253.714 880.757 256.924 857.229 265.047 835C267.333 828.743 268.776 819.538 272.738 814.213C274.952 811.237 278.952 809.625 282 807.656C290.976 801.857 300.638 797.057 310 791.905C324.95 783.677 339.468 774.278 355 767.178C373.62 758.667 393.329 752.531 411 742L411 740L407 739C406.528 728.949 390.506 736.1 385 738.192C374.1 742.334 363.839 747.965 353 752.241C340.158 757.307 326.255 760.274 313 764C315.746 760.054 319.574 753.541 324.093 751.549C327.92 749.863 332.921 750.123 337 749.105C345.945 746.872 354.586 744.207 363 740.413C368.324 738.012 374.263 735.354 377 730L361 730C375.959 719.35 394.695 712.677 412 707C407.06 712.331 399.136 714.44 397 722C415.646 715.173 433.791 703.293 451 693.427C457.24 689.85 466.437 686.496 470 680C466.873 678.296 466.063 676.36 465 673L458 675C463.728 669.088 471.9 666.074 479 662.139C495.579 652.95 513.32 643.859 531 637C528.466 632.292 524.208 632.75 520.015 630.146C513.329 625.994 509.602 619.596 501 619C502.99 614.735 506.161 611.709 509.999 608.978C511.864 607.651 514.755 606.534 515.914 604.447C517.11 602.295 515.675 599.897 514.6 598.018C510.553 590.943 502.818 593.618 496 595C502.977 584.755 509.406 578.474 521 574C519.117 564.498 527.29 556.894 531.592 549C535.474 541.876 536.97 530.576 545.001 527.089C553.551 523.378 565.107 529.25 573.714 530.562C595.624 533.9 617.088 539.635 639 542.96C643.964 543.713 649.007 543.228 654 544C655.365 534.726 643.813 531.305 637 528.816C633.193 527.424 629.853 525.042 626 523.785C611.683 519.117 596.563 516.769 582 513C596.381 507.893 614.193 511.555 629 512.772C640.312 513.701 651.761 514.309 663 515.87C666.646 516.376 671.93 515.932 675.246 517.488C679.734 519.592 683.123 525.221 686.83 528.485C694.109 534.895 702.359 540.505 710.286 546.092C722.938 555.009 736.864 561.846 749.714 570.424C765.207 580.766 779.592 592.784 795 603.254C803.135 608.782 812.485 616.299 822 619.157C827.43 620.787 832.637 618.631 838 621.442C842.225 623.657 845.373 627.514 848.996 630.536C855.147 635.667 862.2 640.434 867.83 646.089C874.184 652.471 881.187 661.627 890 664.62C895.035 666.331 903.895 665.442 909 664C904.335 652.004 892.836 647.792 884 638.999C861.826 616.932 837.079 597.092 816 574C825.839 577.059 834.172 583.574 843 588.667C863.096 600.259 882.754 612.593 904 621.941C919.815 628.9 936.604 634.279 954 631C953.198 628.542 952.57 625.597 950.915 623.545C948.452 620.491 944.149 619.304 941.47 616.455C938.483 613.279 938.506 609.499 934 608L934 605C939.026 604.192 943.186 600.629 938.992 595.509C934.951 590.578 928.151 590.252 927 583C932.721 583.608 938.294 582.158 944.001 582.35C972.269 583.299 1000.78 581.467 1029 583C1027.72 587.693 1024.83 593.004 1025.74 598C1026.8 603.793 1032.79 608.796 1037 612.421C1044.26 618.668 1051.59 624.683 1059.58 629.985C1063.83 632.811 1068.71 634.091 1072.1 638.105C1078.42 645.592 1081.65 658.055 1091.83 661.536C1095.38 662.748 1098.42 661.824 1102 661.595C1104.85 661.412 1108.06 661.931 1110.43 659.91C1115.39 655.693 1108.75 644.035 1106.01 640C1097.71 627.8 1084.22 620.935 1076.67 607.996C1075.05 605.225 1069.29 598.997 1071.82 595.6C1073.73 593.024 1080.07 592.992 1083 592C1082.32 584.262 1090.94 587.012 1096 587.999C1102.62 589.291 1109.48 589.885 1116 591.605C1122.74 593.381 1129.17 596.787 1136 598C1133.68 602.599 1130.14 601.849 1126.65 604.857C1124.02 607.121 1122.87 611.716 1122.33 615C1121.59 619.413 1120.85 626.588 1122.05 630.911C1123.26 635.311 1126.89 639.688 1128.72 644C1133.55 655.397 1138.79 666.625 1143.66 678C1146.57 684.795 1148.1 696.256 1154 701C1152.61 716.535 1163.68 732.008 1168.43 746C1170.42 751.883 1166.66 757.114 1166.74 763C1166.83 770.125 1170.24 777.575 1173.21 783.911C1177.19 792.383 1184.12 798.785 1189.56 806.286C1200.66 821.575 1211.68 837.645 1219.13 855C1222.9 863.785 1224.83 872.861 1227.42 882C1234.03 905.278 1239.58 929.652 1237.91 954C1236.75 970.976 1230.46 987.262 1229 1004C1225.09 1003.69 1219.65 1003.75 1216.17 1001.82C1208.74 997.703 1203.45 989.272 1196 984.615C1170.49 968.676 1145.63 949.664 1115 945.3C1102.98 943.588 1091.83 946.856 1081 951.731C1076.85 953.597 1068.67 958.287 1074.32 963.527C1079.69 968.507 1091.07 961.577 1097 960.468C1106.95 958.606 1125 961.67 1133 968C1138.1 968.61 1142.54 971.646 1146.99 974.052C1153.08 977.345 1159.12 980.21 1165 983.989C1179.62 993.38 1195.56 1002.46 1202.97 1019C1208.04 1030.35 1205.8 1043.35 1203.12 1055C1197.49 1079.5 1188.49 1102.3 1170 1119.96C1158.1 1131.32 1143.26 1139.03 1129 1146.93C1122.25 1150.67 1113.31 1155.67 1111.76 1164.07C1111.48 1165.63 1111.5 1167.63 1113.33 1168.18C1117.28 1169.37 1123.77 1164.89 1127.83 1164.25C1131.79 1163.62 1135.03 1165.42 1139 1163.74C1142.38 1162.31 1148.03 1161.06 1150.64 1158.49C1153.47 1155.7 1152.53 1151.85 1156.06 1149.23C1168.99 1139.65 1182.75 1132 1193.83 1119.99C1205.13 1107.73 1212.41 1092.79 1217.28 1077C1218.92 1071.7 1220.38 1066.42 1221.58 1061C1222.35 1057.51 1222.68 1053.31 1225.34 1050.65C1227.31 1048.67 1230.5 1048.07 1233 1047C1232.88 1040.43 1235.74 1033.47 1237 1027C1240.7 1034.7 1240.02 1049.34 1235.7 1056.87C1233.02 1061.54 1228.16 1063.52 1226.25 1069C1223.73 1076.22 1223.25 1084.49 1221.92 1092C1220.13 1102.06 1217.68 1111.99 1215.67 1122C1212.96 1135.43 1214.12 1149.43 1212.83 1163C1209.88 1194.01 1204.27 1225.38 1195.93 1255.42C1191.86 1270.11 1184.4 1284.04 1178.43 1298C1167.22 1324.19 1155.77 1352.02 1150 1380C1154.52 1380 1163.66 1381.75 1167.44 1378.97C1171.4 1376.06 1172.72 1365.55 1174.12 1361C1178.76 1345.88 1183.65 1330.56 1189.85 1316C1199.5 1293.34 1211.16 1270.79 1217.84 1247C1231.45 1198.58 1234.6 1148.57 1241 1099C1243.95 1101.15 1246.47 1103.04 1250 1104C1250.46 1093.3 1252.86 1082.73 1253.25 1072C1253.74 1058.75 1252.77 1045.2 1252 1032C1250.7 1032.65 1251 1032.15 1251 1034C1250.67 1030.8 1251.2 1028.12 1252 1025L1244 1023C1245.64 1020.48 1245.48 1018.97 1245 1016L1252 1018C1252 1006.76 1251.15 995.145 1252.73 984C1253.33 979.766 1252.76 974.359 1258 974C1260.62 967.644 1257.93 964.057 1256.22 958C1254.86 953.173 1254.73 947.963 1254.19 943C1251.59 919.067 1249.06 894.107 1249 870C1248.98 863.273 1248.41 856.673 1248.03 850C1247.77 845.503 1249.15 841.728 1245 839L1248 838C1246.26 833.285 1241.93 830.7 1240 826L1248 831C1250.44 817.84 1247.92 804.226 1250.14 791.001C1251.03 785.733 1256.43 783.256 1257.42 777.996C1258.39 772.894 1254.76 768.235 1255.3 763C1255.93 756.964 1257.75 751.032 1258.57 745C1260.67 729.664 1262.47 714.335 1264.73 699C1266.74 685.343 1267.89 671.511 1270.66 658C1273.25 645.373 1274.54 632.536 1276.77 620.004C1277.91 613.659 1282.22 605.443 1281.09 599.002C1280.62 596.353 1278.53 594.105 1277 592L1273 594L1270 581C1267.29 583.126 1265.39 585.204 1262 586C1262.41 578.97 1252.05 573.366 1246 571.38C1240.05 569.424 1236.81 569.68 1238 562C1236.05 562.511 1235.54 562.733 1234 564C1228.64 556.099 1233.18 543.729 1233.56 535C1233.75 530.471 1232.45 523.484 1231.47 519C1230.31 513.688 1227.33 508.956 1225.23 504C1222.55 497.669 1220.58 490.776 1216.75 485.001C1214.34 481.372 1210.77 478.659 1208.57 474.911C1204.31 467.659 1202.09 459.89 1197 453C1196.31 457.701 1200.72 463.308 1202 468C1196.1 457.906 1190.16 447.322 1181.49 439.27C1177.4 435.474 1172.3 433.472 1168 430L1171 430C1166.51 424.757 1158.52 425.432 1154.46 420.733C1151.09 416.834 1154.45 411.34 1151.97 407.148C1149.03 402.17 1141.62 404.322 1138.74 408.214C1136.93 410.657 1136.71 414.124 1136 417C1130.65 413.652 1121.36 407.338 1119.3 401.089C1118.26 397.919 1121.93 392.434 1122.39 389C1123.47 381.156 1119.85 376.594 1115 371C1114.01 374.873 1114.16 382.961 1109.78 384.824C1106.13 386.375 1103.37 381.461 1101.81 378.999C1097.1 371.53 1092.06 363.668 1090 355C1092.55 355.474 1096.08 356.62 1098.57 355.393C1102.55 353.429 1100.44 345.386 1098.73 342.459C1092.13 331.221 1069.78 327.134 1071.23 345C1071.54 348.793 1072.54 352.357 1073.58 356C1075 361.001 1076.17 366.14 1078 371C1070.24 365.496 1064.05 357.118 1057.44 350.289C1046.16 338.646 1034.34 327.416 1023.89 315C1018.42 308.517 1014.96 299.466 1008.33 294.152C1002.08 289.131 994.993 295.77 994 302C988.321 295.089 987.116 283.225 980.468 277.488C976.631 274.177 969.4 277.897 967.757 282.094C966.476 285.365 967.854 289.589 968 293C961.513 289.685 956.099 283.132 951.004 278.001C940.796 267.719 929.643 257.383 922 245C919.379 245.744 916.477 246.284 914.055 247.569C899.905 255.074 919.571 271.67 923 279C913.375 280.787 903.663 279.973 894 279.075C857.296 275.662 824.602 258.332 789 250.424C781.677 248.798 774.282 247.423 767 245.626C763.264 244.704 758.894 242.89 755 243.365C748.525 244.155 746.268 249.239 746 255M740 272C738.457 273.267 737.952 273.489 736 274C737.458 272.919 738.248 272.564 740 272M735 274C733.46 275.803 732.402 275.832 730 276C731.648 275.076 733.175 274.551 735 274M762 274L761 275L762 274M729 275L728 276L729 275M758.667 275.667C758.722 275.722 758.778 276.778 758.333 276.333C758.278 276.278 758.222 275.222 758.667 275.667M764 275.333C764.773 275.333 764.16 275.831 763.667 275.667L764 275.333M726 276L725 277L726 276M772 276.333C772.773 276.333 772.16 276.831 771.667 276.667L772 276.333M814 276L813 277L814 276M816 276L815 277L816 276M735 277C733.752 277.685 733.452 277.749 732 278C733.248 277.315 733.548 277.251 735 277M741 277L740 278L741 277M776 277L775 278L776 277M779 277L778 278L779 277M811 277L810 278L811 277M819 277L818 278L819 277M822 277L821 278L822 277M745 278L744 279L745 278M787 278L786 279L787 278M781 279L780 280L781 279M793 279.333C793.773 279.333 793.16 279.831 792.667 279.667L793 279.333M826 279L825 280L826 279M725 280L724 281L725 280M802 280L801 281L802 280M806 280C804.752 280.685 804.452 280.749 803 281C804.248 280.315 804.548 280.251 806 280M808 280.333L808.333 280.667C807.84 280.831 807.227 280.333 808 280.333M830 280L829 281L830 280M814 281L813 282L814 281M818 281L817 282L818 281M825 281L824 282L825 281M833 281L832 282L833 281M695 282C694.455 283.635 694.635 283.455 693 284L693 282L695 282M726 282L725 283L726 282M734 282L733 283L734 282M835 282.333C835.773 282.333 835.16 282.831 834.667 282.667L835 282.333M689 283C687.752 283.685 687.452 283.749 686 284C687.248 283.315 687.548 283.251 689 283M697 283.333C697.773 283.333 697.16 283.831 696.667 283.667L697 283.333M810 283C809.02 284.783 809.092 284.594 807 285C808.223 283.805 808.42 283.684 810 283M681 284C682.801 284.562 684.122 284.824 686 285C684.414 285.914 679.816 286.867 681 284M700 284L699 285L700 284M844 284L843 285L844 284M522 285L521 286L522 285M679 285C677.752 285.685 677.452 285.749 676 286C677.248 285.315 677.548 285.251 679 285M702 285L701 286L702 285M768 285L767 286L768 285M848 285C846.752 285.685 846.452 285.749 845 286C846.248 285.315 846.548 285.251 848 285M934 285L933 286L934 285M673 286L676 287C674.191 287.574 673.931 287.465 672 287L673 286M705 286L713 287C709.895 288.301 707.192 287.942 704 287L705 286M744 287L743 288L744 287M719 288L719 290L714 290C715.479 290.986 715.203 291 717 291C715.191 291.574 714.931 291.465 713 291C714.751 288.552 716.004 288.225 719 288M857 288.333L857.333 288.667C856.84 288.831 856.227 288.333 857 288.333M712 289L712 291L709 291C710.223 289.805 710.42 289.684 712 289M725 289C723.752 289.685 723.452 289.749 722 290C723.248 289.315 723.548 289.251 725 289M730 289L729 290L730 289M681 292C679.42 291.316 679.223 291.195 678 290C679.58 290.684 679.777 290.805 681 292M746 291L745 292L746 291M873 291L872 292L873 291M941 291L940 292L941 291M686 292L685 293L686 292M878 292L877 293L878 292M870 293L869 294L870 293M884 293L883 294L884 293M926 293C924.494 293.683 923.685 293.826 922 294C923.506 293.317 924.314 293.174 926 293M893 294C892.455 295.635 892.635 295.455 891 296C891.545 294.365 891.365 294.545 893 294M908 295C903.783 296.769 898.541 296 894 296C897.914 293.565 903.466 294.997 908 295M920 294C917.692 295.76 915.908 295.917 913 296C915.315 294.409 917.19 294.143 920 294M713.667 295.667C713.722 295.722 713.778 296.778 713.333 296.333C713.278 296.278 713.222 295.222 713.667 295.667M749 295L748 296L749 295M751 296L753 297C751.547 297.555 750.924 297.604 751 296M891 297.333L891.333 297.667C890.84 297.831 890.227 297.333 891 297.333M947 297L946 298L947 297M664 299.333C664.773 299.333 664.16 299.831 663.667 299.667L664 299.333M671 299C669.231 299.779 667.964 299.912 666 300C667.769 299.221 669.036 299.088 671 299M676 299.333C676.773 299.333 676.16 299.831 675.667 299.667L676 299.333M752 299L751 300L752 299M758 299C756.752 299.685 756.452 299.749 755 300C756.248 299.315 756.548 299.251 758 299M659 300.333C659.773 300.333 659.16 300.831 658.667 300.667L659 300.333M777 300L778 302C776.737 301.029 776.608 301.306 777 300M650 301L649 302L650 301M656 301C654.494 301.683 653.685 301.826 652 302C653.506 301.317 654.315 301.174 656 301M664 301C662.752 301.685 662.452 301.749 661 302C662.248 301.315 662.548 301.251 664 301M676 301C673.948 301.874 672.253 301.953 670 302C672.052 301.126 673.747 301.047 676 301M762 301.333C762.773 301.333 762.16 301.831 761.667 301.667L762 301.333M771 301C768.668 301.985 766.543 301.981 764 302C766.331 301.016 768.457 301.019 771 301M775 301L774 302L775 301M922 301L921 302L922 301M633 302L643 302C639.751 304.731 636.022 304.181 632 305C632.251 303.549 632.315 303.248 633 302M953 302L952 303L953 302M623 303C621.494 303.683 620.685 303.826 619 304C620.506 303.317 621.314 303.174 623 303M461 304C459.457 305.267 458.952 305.489 457 306C458.376 305.089 459.44 304.596 461 304M463 304L462 305L463 304M610 304.333C610.773 304.333 610.16 304.831 609.667 304.667L610 304.333M599 305L598 306L599 305M637 305L636 306L637 305M451 306L450 307L451 306M454 306L453 307L454 306M592 306.333C592.773 306.333 592.16 306.831 591.667 306.667L592 306.333M619 306L618 307L619 306M584 307L583 308L584 307M595 307.333C595.773 307.333 595.16 307.831 594.667 307.667L595 307.333M611 307C609.777 308.195 609.58 308.317 608 309C608.98 307.216 608.908 307.406 611 307M614 307L614 309C612.365 308.455 612.545 308.635 612 307L614 307M577 308L576 309L577 308M961 308L960 309L961 308M441 309C437.374 311.214 433.045 311.786 429 313.025C421.034 315.464 413.015 317.725 405 320C407.209 316.482 411.127 315.744 415 314.589C423.359 312.097 432.235 309.078 441 309M584 309L584 311C582.365 310.455 582.545 310.635 582 309L584 309M502.667 310.667C502.722 310.722 502.778 311.778 502.333 311.333C502.278 311.278 502.222 310.222 502.667 310.667M564 310L563 311L564 310M580 310L579 311L580 310M558 311L557 312L558 311M575 311L574 312L575 311M616 311L615 312L616 311M497 312C492.754 316.103 486.617 316.677 481 317.8C475.362 318.928 469.75 320.737 464 321L464 319C475.177 318.025 485.753 312.895 497 312M553 312L552 313L553 312M541 314.333L541.333 314.667C540.84 314.831 540.227 314.333 541 314.333M601.667 314.667C601.722 314.722 601.778 315.778 601.333 315.333C601.278 315.278 601.222 314.222 601.667 314.667M609 314L608 315L609 314M538 315L537 316L538 315M546 315.333L546.333 315.667C545.84 315.831 545.227 315.333 546 315.333M554 315L554 317C552.365 316.455 552.545 316.635 552 315L554 315M974 315L979 316C976.761 316.811 975.353 316.529 973 316L974 315M528 317L527 318L528 317M542 317L541 318L542 317M582 317L581 318L582 317M587 317L586 318L587 317M523 318.333C523.773 318.333 523.16 318.831 522.667 318.667L523 318.333M404 319C403.402 321.565 402.732 323.022 401 325C400.918 321.869 401.586 321.029 404 319M518 319L517 320L518 319M462 320L463 322L461 322C461 320.147 460.7 320.65 462 320M515 320L514 321L515 320M1006 321C1010.15 324.573 1016.07 329.466 1017 335C1012.08 332.6 1006.39 326.668 1006 321M455 322C454.455 323.635 454.635 323.455 453 324C453.545 322.365 453.365 322.545 455 322M457 322.333L457.333 322.667C456.84 322.831 456.227 322.333 457 322.333M506 322.333C506.774 322.333 506.16 322.831 505.667 322.667L506 322.333M452 323C450.457 324.267 449.952 324.489 448 325C449.376 324.089 450.44 323.596 452 323M499 324L498 325L499 324M403 327C400.912 329.709 398.248 328.986 395 329L394 325C397.181 325.8 399.64 327.072 403 327M444 325C442.457 326.267 441.952 326.489 440 327C441.376 326.089 442.44 325.596 444 325M494 325L493 326L494 325M391 326.333C391.773 326.333 391.16 326.831 390.667 326.667L391 326.333M439 327C437.861 328.015 437.388 328.309 436 329C437.223 327.805 437.42 327.684 439 327M990 327L991 329C989.737 328.029 989.608 328.306 990 327M481 328L480 329L481 328M121 329C119.126 332.344 118.198 335.168 118 339C121.903 336.823 122.301 333.212 123 329L121 329M475 330L474 331L475 330M472 331L471 332L472 331M466 333L465 334L466 333M463.667 334.667C463.722 334.722 463.778 335.778 463.333 335.333C463.278 335.278 463.222 334.222 463.667 334.667M474 334L473 335L474 334M995 334L996 336C994.737 335.029 994.608 335.306 995 334M991 336L990 337L991 336M465 337L464 338L465 337M466 339L465 340L466 339M1000 339L999 340L1000 339M1022 339L1021 340L1022 339M1024 339L1025 341C1023.74 340.029 1023.61 340.306 1024 339M395 340C394.455 341.635 394.635 341.455 393 342C393.545 340.365 393.365 340.545 395 340M469 341L468 342L469 341M472 343C470.822 343.851 469.477 344.525 468 345C468.472 343.583 468.814 343.186 470 342L472 343M1027 342C1028.19 343.186 1028.53 343.584 1029 345C1027.45 343.738 1027.19 343.806 1027 342M1007 344L1006 345L1007 344M465 345C463.777 346.195 463.58 346.316 462 347C463.139 345.984 463.611 345.691 465 345M1027 345L1026 346L1027 345M1010 346L1009 347L1010 346M1021 346L1020 347L1021 346M456 347L455 348L456 347M1032 347C1032.99 348.479 1033 348.203 1033 350C1031.92 348.616 1031.81 348.662 1032 347M425 354C420.889 353.829 417.053 354.39 413 354.468C409.908 354.529 407.823 353.455 405 355C404.426 353.191 404.535 352.931 405 351C412.382 351.251 422.021 342.958 425 354M461 348L460 349L461 348M1013 348L1012 349L1013 348M1020 348C1017.96 349.416 1016.49 349.745 1014 350C1015.98 348.5 1017.52 348.27 1020 348M421 349L422 350L421 349M1027 349.333C1027.77 349.333 1027.16 349.831 1026.67 349.667L1027 349.333M401 350L400 351L401 350M416 350L417 351L416 350M1035 350L1034 351L1035 350M411 354L416 353C413.587 351.338 412.608 351.556 411 354M403 352C401.107 353.911 400.667 354.138 398 354C399.693 352.938 401.04 352.48 403 352M428 352L427 353L428 352M1037 352L1036 353L1037 352M434 353L433 354L434 353M429 354L428 355L429 354M1038.67 354.667C1038.72 354.722 1038.78 355.778 1038.33 355.333C1038.28 355.278 1038.22 354.222 1038.67 354.667M396.667 355.667C396.722 355.722 396.778 356.778 396.333 356.333C396.278 356.278 396.222 355.222 396.667 355.667M446 355L445 356L446 355M379 356L378 357L379 356M383 356L382 357L383 356M443 356.333L443.333 356.667C442.84 356.831 442.227 356.333 443 356.333M1041 357.333C1041.77 357.333 1041.16 357.831 1040.67 357.667L1041 357.333M377 358L376 359L377 358M374 359C369.844 364.667 359.482 366.161 353 368C356.458 362.326 367.69 359.932 374 359M1043 359L1042 360L1043 359M1045 360L1046 362L1044 362C1044 360.147 1043.7 360.65 1045 360M434 361L433 362L434 361M429 364L428 365L429 364M1049 364L1054 369C1050.98 369.072 1049.38 366.908 1049 364M1047 365L1046 366L1047 365M425 366L424 367L425 366M421 368L420 369L421 368M418 370L417 371L418 370M416 371L415 372L416 371M414 372L413 373L414 372M1057 372C1060.21 375.204 1063.29 378.389 1067 381C1062.66 382.143 1057.52 375.97 1057 372M1093 372L1092 373L1093 372M351 374C349.752 374.685 349.452 374.749 348 375C349.249 374.315 349.548 374.251 351 374M410 374C409.455 375.635 409.635 375.455 408 376C408.545 374.365 408.365 374.545 410 374M406 377L405 378L406 377M402 379L401 380L402 379M399 381C398.455 382.635 398.635 382.455 397 383C397.545 381.365 397.365 381.545 399 381M1051 381L1050 382L1051 381M364 383C357.861 391.022 349.558 394.275 342 386C348.797 384.325 357.122 381.109 364 383M395 384L394 385L395 384M1071 385L1070 386L1071 385M390 387L389 388L390 387M1074 387L1073 388L1074 387M1076 389L1077 391C1075.74 390.029 1075.61 390.306 1076 389M382 394L381 395L382 394M1085 394L1086 396C1084.74 395.029 1084.61 395.306 1085 394M379 396C378.455 397.635 378.635 397.455 377 398C377.545 396.365 377.365 396.545 379 396M1088 396.333C1088.77 396.333 1088.16 396.831 1087.67 396.667L1088 396.333M1092 397.333C1092.77 397.333 1092.16 397.831 1091.67 397.667L1092 397.333M1095 398L1094 399L1095 398M1097 400L1098 402C1096.74 401.029 1096.61 401.306 1097 400M373 401C372.455 402.635 372.635 402.455 371 403C371.545 401.365 371.365 401.545 373 401M381 402.333C381.773 402.333 381.16 402.831 380.667 402.667L381 402.333M388 404L387 405L388 404M392 405L391 406L392 405M1101 405L1102 407C1100.74 406.029 1100.61 406.306 1101 405M397 406L396 407L397 406M400 407.333L400.333 407.667C399.84 407.831 399.227 407.333 400 407.333M364 409L363 410L364 409M408 409.333L408.333 409.667C407.84 409.831 407.227 409.333 408 409.333M1102 409C1100.75 409.685 1100.45 409.749 1099 410C1100.25 409.315 1100.55 409.251 1102 409M1105 409L1104 410L1105 409M361 411L360 412L361 411M1108 412L1108 414C1106.36 413.455 1106.55 413.635 1106 412L1108 412M1099 413L1098 414L1099 413M364 414L366 415C364.547 415.555 363.924 415.604 364 414M1110 414L1111 416C1109.74 415.029 1109.61 415.306 1110 414M369 416L368 417L369 416M355 417L354 418L355 417M1113 417L1112 418L1113 417M377 418L376 419L377 418M353 419L352 420L353 419M381 419L380 420L381 419M383 419L382 420L383 419M420 419L419 420L420 419M1115 419L1114 420L1115 419M386 420L385 421L386 420M351 421L350 422L351 421M391 421L390 422L391 421M393 421L392 422L393 421M349 423L348 424L349 423M402 423.333L402.333 423.667C401.84 423.831 401.227 423.333 402 423.333M409 424L408 425L409 424M417 424C414.421 425.54 412.147 426.364 410 424L417 424M1146 424L1145 425L1146 424M1124 426L1123 427L1124 426M346 427L345 428L346 427M414 427C412.494 427.683 411.685 427.826 410 428C411.506 427.317 412.315 427.174 414 427M1168 429L1167 430L1168 429M1131 431L1130 432L1131 431M341 433C340.455 434.635 340.635 434.455 339 435C339.545 433.365 339.365 433.545 341 433M1137 434L1141 436C1139.03 436.972 1136.03 436.612 1137 434M1143 436L1142 437L1143 436M342 438L341 439L342 438M336 439L335 440L336 439M1152 442L1153 444C1151.74 443.029 1151.61 443.306 1152 442M333 443L332 444L333 443M331 446L330 447L331 446M1155 446L1154 447L1155 446M1172 449L1171 450L1172 449M1164 452L1159 451C1161.3 450.084 1162.38 450.121 1164 452M1166 450L1165 451L1166 450M1169 450L1168 451L1169 450M327 452L326 453L327 452M1174 452L1175 454C1173.74 453.029 1173.61 453.306 1174 452M1177 454.333C1177.77 454.333 1177.16 454.831 1176.67 454.667L1177 454.333M327 464C325.446 463.223 325.85 463.725 327 462C324.346 462.546 324.408 462.323 323 460L322 465C321.189 462.761 321.471 461.353 322 459C324.928 460.168 326.386 460.898 327 464M1178 460L1178 462C1176.36 461.455 1176.55 461.635 1176 460L1178 460M1177.67 465.667C1177.72 465.722 1177.78 466.778 1177.33 466.333C1177.28 466.278 1177.22 465.222 1177.67 465.667M322 466L321 467L322 466M321 468L320 469L321 468M1203 468L1202 469L1203 468M1179 472L1178 473L1179 472M1181 474L1180 475L1181 474M1184 476L1183 477L1184 476M1186 477C1187.19 478.186 1187.53 478.584 1188 480C1186.45 478.738 1186.19 478.806 1186 477M316 486C315.455 487.635 315.635 487.455 314 488C314.545 486.365 314.365 486.545 316 486M1193 488L1192 489L1193 488M1194 490L1193 491L1194 490M312 491C311.455 492.635 311.635 492.455 310 493C310.545 491.365 310.365 491.545 312 491M602 493C597.276 494.982 591.09 494 586 494C590.174 491.193 597.166 492.122 602 493M1195 492L1194 493L1195 492M309 493L308 494L309 493M581 493.333C581.773 493.333 581.16 493.831 580.667 493.667L581 493.333M680 493L679 494L680 493M566 494.333C566.773 494.333 566.16 494.831 565.667 494.667L566 494.333M573 494L572 495L573 494M614 494.333L614.333 494.667C613.84 494.831 613.227 494.333 614 494.333M618 494L617 495L618 494M684 494L683 495L684 494M283 495C281.777 496.195 281.58 496.316 280 497C281.223 495.805 281.42 495.684 283 495M557 495L556 496L557 495M560 495L559 496L560 495M627 495.333C627.773 495.333 627.16 495.831 626.667 495.667L627 495.333M630 495L629 496L630 495M678 495L677 496L678 495M689 495L688 496L689 495M1196 495L1195 496L1196 495M304 496L303 497L304 496M550 496L549 497L550 496M638 496L637 497L638 496M691 496L692 498C690.737 497.029 690.608 497.306 691 496M544 497.333C544.773 497.333 544.16 497.831 543.667 497.667L544 497.333M677 497L676 498L677 497M1195 497L1195 500C1194.3 498.446 1194.3 498.554 1195 497M1197 497L1198 499C1196.74 498.029 1196.61 498.306 1197 497M656 500C658.291 500.311 658.32 500.366 660 502C657.958 501.524 656.087 501.074 654 501C654 498.915 654.138 499.276 652 499C654.046 498.249 654.596 498.344 656 500M698 499L697 500L698 499M676 500C675.455 501.635 675.635 501.455 674 502C674.545 500.365 674.365 500.545 676 500M701 500L700 501L701 500M1198 500L1199 502C1197.74 501.029 1197.61 501.306 1198 500M531 501L530 502L531 501M662 501L661 502L662 501M707 501L706 502L707 501M529 502L528 503L529 502M669 502C667.494 502.683 666.685 502.826 665 503C666.506 502.317 667.314 502.174 669 502M712 502.333L712.333 502.667C711.84 502.831 711.227 502.333 712 502.333M292 503L291 504L292 503M672 503.333C672.773 503.333 672.16 503.831 671.667 503.667L672 503.333M1200 503L1199 504L1200 503M729 504L728 505L729 504M288 505.333L288.333 505.667C287.84 505.831 287.227 505.333 288 505.333M292 505.333L292.333 505.667C291.84 505.831 291.227 505.333 292 505.333M735 505L734 506L735 505M285 507C284.455 508.635 284.635 508.455 283 509C283.545 507.365 283.365 507.545 285 507M296 507L295 508L296 507M288 508.333C288.773 508.333 288.16 508.831 287.667 508.667L288 508.333M1196.67 508.667C1196.72 508.722 1196.78 509.778 1196.33 509.333C1196.28 509.278 1196.22 508.222 1196.67 508.667M281 509L280 510L281 509M298 509L297 510L298 509M1201 509L1200 510L1201 509M1202.67 509.667C1202.72 509.722 1202.78 510.778 1202.33 510.333C1202.28 510.278 1202.22 509.222 1202.67 509.667M740 510L739 511L740 510M770 511L769 512L770 511M767 513L766 514L767 513M775 513L774 514L775 513M1205 513L1204 514L1205 513M273 514L272 515L273 514M778 516L777 517L778 516M743 517L742 518L743 517M267 518L266 519L267 518M1205 518L1204 519L1205 518M1208 518L1207 519L1208 518M264 519L263 520L264 519M765 519L764 520L765 519M295 520L294 521L295 520M296.667 520.667C296.722 520.722 296.778 521.778 296.333 521.333C296.278 521.278 296.222 520.222 296.667 520.667M308 520.333C308.773 520.333 308.16 520.831 307.667 520.667L308 520.333M712 520L711 521L712 520M719 520C717.494 520.683 716.685 520.826 715 521C716.506 520.317 717.314 520.174 719 520M723 520C721.752 520.685 721.452 520.749 720 521C721.248 520.315 721.548 520.251 723 520M1209 520L1208 521L1209 520M261 521.333L261.333 521.667C260.84 521.831 260.227 521.333 261 521.333M300 521L299 522L300 521M304 521C302.752 521.685 302.451 521.749 301 522C302.249 521.315 302.548 521.251 304 521M742 521L741 522L742 521M292 522L291 523L292 522M311 522L310 523L311 522M732 522L731 523L732 522M737 522C735.752 522.685 735.452 522.749 734 523C735.248 522.315 735.549 522.251 737 522M290 523L289 524L290 523M285 525L284 526L285 525M473 525L472 526L473 525M783 525L782 526L783 525M1201 525L1200 526L1201 525M1210 525.333C1210.77 525.333 1210.16 525.831 1209.67 525.667L1210 525.333M1213 525L1212 526L1213 525M282 526L281 527L282 526M517 526L517 528L515 528L515 526L517 526M717 526L716 527L717 526M762.667 526.667C762.722 526.722 762.778 527.778 762.333 527.333C762.278 527.278 762.222 526.222 762.667 526.667M1219 526C1219.75 530.298 1219.74 532.435 1216 535L1218 527L1215 530C1214.01 528.522 1214 528.797 1214 527C1215.8 526.438 1217.12 526.176 1219 526M253 528L252 529L253 528M278 528L277 529L278 528M313 528L312 529L313 528M249 529L248 530L249 529M721 529L720 530L721 529M311 530C309.777 531.195 309.58 531.316 308 532C309.139 530.984 309.611 530.691 311 530M764 530L763 531L764 530M724 531L723 532L724 531M1214.67 531.667C1214.72 531.722 1214.78 532.778 1214.33 532.333C1214.28 532.278 1214.22 531.222 1214.67 531.667M245 532L244 533L245 532M271 532L270 533L271 532M306 533L305 534L306 533M727 533L726 534L727 533M796 533L795 534L796 533M304 534L303 535L304 534M450 534C449.455 535.635 449.635 535.455 448 536C448.545 534.365 448.365 534.545 450 534M266 535L265 536L266 535M302 535C301.455 536.635 301.635 536.455 300 537C300.545 535.365 300.365 535.545 302 535M264 536L263 537L264 536M238 537L237 538L238 537M444 537L443 538L444 537M801 537L800 538L801 537M236 538C234.777 539.195 234.58 539.316 233 540C234.139 538.985 234.612 538.691 236 538M767 538L766 539L767 538M823 538L822 539L823 538M259 539L258 540L259 539M294 539L293 540L294 539M736 539L735 540L736 539M829 539L828 540L829 539M1235 539L1236 540L1235 539M434 540L433 541L434 540M438 540L437 541L438 540M768 540L767 541L768 540M233 541C233 545.741 235.057 556.983 230 559C230.478 552.946 231 547.095 231 541L233 541M256 541C255.455 542.635 255.635 542.455 254 543C254.545 541.365 254.365 541.545 256 541M739 541L738 542L739 541M818 541L817 542L818 541M835 541.333L835.333 541.667C834.84 541.831 834.227 541.333 835 541.333M288 542L287 543L288 542M432 542L431 543L432 542M769.667 543.667C769.722 543.722 769.778 544.778 769.333 544.333C769.278 544.278 769.222 543.222 769.667 543.667M842 543L841 544L842 543M252 544L251 545L252 544M285 544L284 545L285 544M491 544.333L491.333 544.667C490.84 544.831 490.227 544.333 491 544.333M743 544L742 545L743 544M430 545L429 548C428.599 546.234 428.711 546.443 430 545M817 545L816 546L817 545M846 545L845 546L846 545M494 546L493 547L494 546M280 547L279 548L280 547M483 547L482 548L483 547M748 547L747 548L748 547M816 547L815 548L816 547M481 548L480 549L481 548M853 548L852 549L853 548M490 550L489 551L490 550M858 551L857 552L858 551M240 552L239 553L240 552M272 552L271 553L272 552M755 552L754 553L755 552M775 552L774 553L775 552M235 553L234 554L235 553M270 553C268.608 554.433 267.767 555.045 266 556C267.393 554.566 268.233 553.955 270 553M465 553L464 554L465 553M931 553L930 554L931 553M425 554L424 555L425 554M933 554L932 555L933 554M457 555L456 556L457 555M759 555L760 557C758.737 556.029 758.608 556.306 759 555M777 555L776 556L777 555M912 555L911 556L912 555M453 556C450.99 557.474 450.478 557.464 448 557C449.683 556.323 451.178 556.181 453 556M482 556L481 557L482 556M938 556L937 557L938 556M264 557L263 558L264 557M267 557L266 558L267 557M444 557L443 558L444 557M778 557L779 559C777.737 558.029 777.608 558.307 778 557M425 558L424 559L425 558M432 558.333C432.773 558.333 432.16 558.831 431.667 558.667L432 558.333M763 558L762 559L763 558M868 558L867 559L868 558M978 558L976 562C973.336 561.063 971.625 560.306 970 558L978 558M428 559L427 560L428 559M911 559L910 560L911 559M975 559L976 560L975 559M766 560L765 561L766 560M870 560L869 561L870 560M258 561L257 562L258 561M781 561L780 562L781 561M963 561L962 562L963 561M911 562C910.685 565.438 910.808 568.734 908 571C908.881 567.889 909.269 564.721 911 562M957 562C955.752 562.685 955.451 562.749 954 563C955.248 562.315 955.548 562.251 957 562M201 563L202 564L201 563M473 563L472 564L473 563M949 563L948 564L949 563M951 563L950 564L951 563M989 563L988 564L989 563M470 565C469.455 566.635 469.635 566.455 468 567C468.545 565.365 468.365 565.545 470 565M784 565C785.186 566.186 785.528 566.584 786 568C784.452 566.738 784.192 566.806 784 565M993 565L992 566L993 565M876 566C875.006 568.203 875.33 568.047 873 568L876 566M998 566.333C998.773 566.333 998.16 566.831 997.667 566.667L998 566.333M1006 566.333C1006.77 566.333 1006.16 566.831 1005.67 566.667L1006 566.333M1010 566L1009 567L1010 566M1012 566L1011 567L1012 566M1022 566C1019.11 567.213 1016.13 566.998 1013 567C1015.89 565.787 1018.87 566.002 1022 566M1025 566.333C1025.77 566.333 1025.16 566.831 1024.67 566.667L1025 566.333M250 567C249.455 568.635 249.635 568.455 248 569C248.545 567.365 248.365 567.545 250 567M914 567C912.613 571.936 911.646 576.914 911 582C908.373 581.161 907.839 580.627 907 578C907.685 579.248 907.749 579.548 908 581L912 567L914 567M1042 567L1041 568L1042 567M1044 567.333C1044.77 567.333 1044.16 567.831 1043.67 567.667L1044 567.333M1047 567L1046 568L1047 567M777 568L778 570C776.737 569.029 776.608 569.306 777 568M1060 568.333C1060.77 568.333 1060.16 568.831 1059.67 568.667L1060 568.333M1065 568C1063.75 568.685 1063.45 568.749 1062 569C1063.25 568.315 1063.55 568.251 1065 568M247 569L246 570L247 569M1076 569L1075 570L1076 569M788 570L787 571L788 570M1087 570C1085.75 570.685 1085.45 570.749 1084 571C1085.25 570.315 1085.55 570.251 1087 570M881 571L880 572L881 571M886 571C885.455 572.635 885.635 572.455 884 573C884.545 571.365 884.365 571.545 886 571M895 571L894 572L895 571M1093 571L1092 572L1093 571M243 572C241.897 573.456 241.456 573.897 240 575C241.104 573.543 241.543 573.104 243 572M461 572L460 573L461 572M883 572L882 573L883 572M909 572L908 576C907.803 574.189 908.047 573.581 909 572M1098 572.333C1098.77 572.333 1098.16 572.831 1097.67 572.667L1098 572.333M1236 572L1236 575C1234.22 574.02 1234.41 574.092 1234 572L1236 572M897 573L896 574L897 573M1104 573L1103 574L1104 573M791 574L792 576C790.737 575.029 790.608 575.306 791 574M899 575L898 576L899 575M1115 575.333C1115.77 575.333 1115.16 575.831 1114.67 575.667L1115 575.333M1120 576L1119 577L1120 576M237 577C236.455 578.635 236.635 578.455 235 579C235.545 577.365 235.365 577.545 237 577M789 577L788 578L789 577M1124 577L1123 578L1124 577M794 578L795 580C793.737 579.029 793.608 579.306 794 578M1127 578L1126 579L1127 578M448 579L447 580L448 579M450 579L449 580L450 579M1131 579L1130 580L1131 579M793 580L792 581L793 580M1133 580L1132 581L1133 580M796 581C797.016 582.139 797.309 582.612 798 584C796.452 582.738 796.192 582.806 796 581M231 582L230 583L231 582M445 582C444.455 583.635 444.635 583.455 443 584C443.545 582.365 443.365 582.545 445 582M1050 593C1045.06 591.335 1041.25 588.036 1038 584C1041.11 583.079 1049.67 581.183 1051.31 585.318C1052.26 587.732 1050.83 590.775 1050 593M1143 583L1142 584L1143 583M230 584C229.769 586.126 229.754 587.879 230 590C224.716 593.185 223.635 598.041 217 600C217.224 601.684 217.218 602.314 217 604C215.73 603.028 214.972 602.27 214 601C215.896 598.714 217.644 596.795 220 595C220 597.832 221.812 596.894 223.333 595C226.305 591.301 226.037 587.229 230 584M1149 586L1148 587L1149 586M1153 588L1154 590C1152.74 589.029 1152.61 589.306 1153 588M1263 588L1262 589L1263 588M1261 590C1260.45 591.635 1260.64 591.455 1259 592C1259.54 590.365 1259.36 590.545 1261 590M1269 590C1268.67 593.736 1268.2 596.811 1265 599C1265.23 594.871 1265.12 592.115 1269 590M224 591C222.897 592.456 222.456 592.897 221 594C222.104 592.543 222.543 592.104 224 591M437 591L436 592L437 591M1158 592C1156.55 593.608 1155.95 594.064 1154 595C1155.22 593.267 1156.01 592.849 1158 592M888.667 594.667C888.722 594.722 888.778 595.778 888.333 595.333C888.278 595.278 888.222 594.222 888.667 594.667M1160 594L1159 595L1160 594M499 595.333L499.333 595.667C498.84 595.831 498.227 595.333 499 595.333M1162 597L1162 601C1161.29 599.24 1161.29 598.76 1162 597M1160 599L1159 600L1160 599M431 604L430 605L431 604M429 605C428.455 606.635 428.635 606.455 427 607C427.545 605.365 427.365 605.545 429 605M426 607L425 608L426 607M214 608C214.481 610.201 214.481 610.799 214 613C213.17 610.969 213.17 610.031 214 608M1163 608L1162 609L1163 608M1149 609L1148 610L1149 609M1153 611L1150 610C1151.77 609.599 1151.56 609.711 1153 611M1159 609L1158 610L1159 609M1157 610L1156 611L1157 610M1234 613L1231 612C1232.77 611.599 1232.56 611.711 1234 613M1236 612L1235 613L1236 612M1240 613L1239 614L1240 613M1243 613.333C1243.77 613.333 1243.16 613.831 1242.67 613.667L1243 613.333M1246 613C1247.2 614.223 1247.32 614.42 1248 616L1245 614L1246 613M415 615L414 616L415 615M1241 615.333C1241.77 615.333 1241.16 615.831 1240.67 615.667L1241 615.333M204 616C198.65 623.748 196.086 631.902 194 641L189 642C188.343 637.547 189.82 634.824 192 631L188 633C190.552 624.325 195.207 618.268 204 616M1144 616L1143 617L1144 616M209.667 618.667C209.722 618.722 209.778 619.778 209.333 619.333C209.278 619.278 209.222 618.222 209.667 618.667M1144 618L1144 621C1143.3 619.446 1143.3 619.554 1144 618M1246 619L1245 620L1246 619M412 621L411 622L412 621M1243 621L1242 622L1243 621M408 622L407 623L408 622M404 623L403 624L404 623M401 624L400 625L401 624M1238 624L1237 625L1238 624M1146 629L1145 630L1146 629M393 630L392 631L393 630M208 634L207 635L208 634M207.667 636.667C207.722 636.722 207.778 637.778 207.333 637.333C207.278 637.278 207.222 636.222 207.667 636.667M391 636L390 637L391 636M389 644L388 645L389 644M208 648L207 649L208 648M1268 649L1267 650L1268 649M208 650L207 651L208 650M1153 651L1152 652L1153 651M383 652L382 653L383 652M418 655C415.306 660.529 409.934 663.363 405 666.745C399.274 670.671 393.12 675.381 389 681C386.218 680.188 385.373 679.547 384 677C381.068 677.967 378.652 679.421 376 681C378.304 676.527 382.932 673.818 387.015 670.978C396.352 664.483 406.856 657.779 418 655M208.667 658.667C208.722 658.722 208.778 659.778 208.333 659.333C208.278 659.278 208.222 658.222 208.667 658.667M1265.67 661.667C1265.72 661.722 1265.78 662.778 1265.33 662.333C1265.28 662.278 1265.22 661.222 1265.67 661.667M1213 664L1213 666C1211.36 665.455 1211.55 665.635 1211 664L1213 664M1265 666L1264 667L1265 666M210 667L209 668L210 667M1231 669L1231 671C1229.36 670.455 1229.55 670.635 1229 669L1231 669M1233 669L1232 670L1233 669M209 671L208 672L209 671M355 672C354.455 673.635 354.635 673.455 353 674C353.545 672.365 353.365 672.545 355 672M1263.67 672.667C1263.72 672.722 1263.78 673.778 1263.33 673.333C1263.28 673.278 1263.22 672.223 1263.67 672.667M1232.67 673.667C1232.72 673.722 1232.78 674.778 1232.33 674.333C1232.28 674.278 1232.22 673.222 1232.67 673.667M1231 674L1232 679C1230.87 677.101 1230.53 676.143 1231 674M1163 675L1162 676L1163 675M1264 676C1262.12 677.436 1261.69 678.695 1261 681C1260.13 678.535 1260.74 677.27 1262 675L1264 676M350 676L349 677L350 676M455 677L454 678L455 677M1259 679L1258 680C1256.8 678.777 1256.68 678.58 1256 677C1257.58 677.683 1257.78 677.805 1259 679M208 679L208 683C207.29 681.241 207.29 680.759 208 679M346 679L345 680L346 679M453 679L452 680L453 679M344 681L343 682L344 681M374 681L373 682L374 681M1231 682L1230 683L1231 682M1166 683L1165 684L1166 683M209 684L208 685L209 684M371 684C369.608 685.434 368.767 686.045 367 687C368.45 685.393 369.052 684.936 371 684M1262 684L1261 685L1262 684M1167 686L1166 687L1167 686M1261 686L1262 688C1260.74 687.029 1260.61 687.306 1261 686M209 688L208 689L209 688M364 697L364 693C366.675 693 366.636 690.254 368 688C375.647 692.719 370.442 696.162 364 697M1167.67 688.667C1167.72 688.722 1167.78 689.778 1167.33 689.333C1167.28 689.278 1167.22 688.222 1167.67 688.667M1229 688L1229 690L1227 690C1227.55 688.365 1227.36 688.545 1229 688M1231 689C1231.4 691.502 1231.36 693.489 1231 696C1229.94 693.466 1229.94 691.534 1231 689M218 690L217 691L218 690M334 691L333 692L334 691M1169 691L1168 692L1169 691M213 692C212.455 693.635 212.635 693.455 211 694C211.545 692.365 211.365 692.545 213 692M1228 695.333C1228.77 695.333 1228.16 695.831 1227.67 695.667L1228 695.333M208 697L207 698L208 697M210 697L209 698L210 697M1230 698L1229 699L1230 698M208 700C207.693 702.123 207.618 702.686 206 704C206.564 702.248 206.919 701.458 208 700M1228.67 700.667C1228.72 700.722 1228.78 701.778 1228.33 701.333C1228.28 701.278 1228.22 700.222 1228.67 700.667M1228 705L1227 706L1228 705M207 708L206 709L207 708M326 708L325 709L326 708M1227 708L1226 709L1227 708M1082.33 709.667C1082.28 709.723 1082.22 710.777 1082.67 710.333C1082.72 710.278 1082.78 709.222 1082.33 709.667M1174 709L1173 710L1174 709M356 710.333C356.773 710.333 356.16 710.831 355.667 710.667L356 710.333M220 712L219 713L220 712M1226 712L1225 713L1226 712M329 714.333L329.333 714.667C328.84 714.831 328.227 714.333 329 714.333M339 716L338 717L339 716M341 716L340 717L341 716M343 716.333C343.773 716.333 343.16 716.831 342.667 716.667L343 716.333M346 716.333C346.773 716.333 346.16 716.831 345.667 716.667L346 716.333M1225 717L1224 718L1225 717M339 721L338 722L339 721M221 722L220 723L221 722M1224 722L1223 723L1224 722M1177.67 725.667C1177.72 725.722 1177.78 726.778 1177.33 726.333C1177.28 726.278 1177.22 725.222 1177.67 725.667M1223 728L1222 729L1223 728M1180 731L1179 732L1180 731M220 733L219 734L220 733M321 733L320 734L321 733M1221.67 733.667C1221.72 733.722 1221.78 734.778 1221.33 734.333C1221.28 734.278 1221.22 733.222 1221.67 733.667M1182 737L1181 738L1182 737M1240 737C1239.59 746.485 1236.5 755.597 1235.7 765C1235.32 769.453 1236.96 773.674 1236.76 778.011C1236.55 782.459 1234.2 785.342 1235 790L1239 789C1238.5 800.697 1232.8 813.081 1237 824C1228.43 820.806 1228.04 809.926 1228 802C1227.95 791.955 1228.88 781.978 1229.83 772C1231.01 759.561 1231.42 747.947 1238 737L1240 737M1221 738L1220 739L1221 738M311 740L310 741L311 740M1184 743L1183 744L1184 743M306 744L305 745L306 744M1220 744L1219 745L1220 744M1231.67 744.667C1231.72 744.722 1231.78 745.778 1231.33 745.333C1231.28 745.278 1231.22 744.222 1231.67 744.667M219 746L220 749C218.711 747.557 218.599 747.766 219 746M299 749.333L299.333 749.667C298.84 749.831 298.227 749.333 299 749.333M1186 749L1185 750L1186 749M1219 750L1218 751L1219 750M298 751L297 752L298 751M1217 751L1216 752L1217 751M1187 753L1186 754L1187 753M1218 755L1218 758C1217.3 756.446 1217.3 756.554 1218 755M293 757L292 758L293 757M1188 757L1187 758L1188 757M217.667 758.667C217.722 758.722 217.778 759.778 217.333 759.333C217.278 759.278 217.222 758.222 217.667 758.667M1217 763L1217 766C1216.3 764.446 1216.3 764.554 1217 763M217 766L216 767L217 766M1214.67 766.667C1214.72 766.722 1214.78 767.778 1214.33 767.333C1214.28 767.278 1214.22 766.222 1214.67 766.667M1216.67 767.667C1216.72 767.722 1216.78 768.778 1216.33 768.333C1216.28 768.278 1216.22 767.223 1216.67 767.667M286 769L285 770L286 769M218 770L218 773C217.304 771.446 217.304 771.554 218 770M1213 772L1212 773L1213 772M218 774L217 775L218 774M1215 775L1214 776L1215 775M216.667 777.667C216.722 777.722 216.778 778.778 216.333 778.333C216.278 778.278 216.222 777.222 216.667 777.667M1194 777L1193 778L1194 777M1215 778L1214 779L1215 778M285 779L286 781C284.737 780.029 284.608 780.306 285 779M1195 780L1194 781L1195 780M1213 782C1214.14 787.64 1213.66 793.295 1214 799C1210.94 794.967 1211.06 786.613 1213 782M216 785L215 786L216 785M283 787L282 788L283 787M281 788L280 789L281 788M1200 788L1199 789L1200 788M1242 788.333C1242.77 788.333 1242.16 788.831 1241.67 788.667L1242 788.333M276 791L275 792L276 791M667 798C664.512 794.118 660.281 794.337 656 794.934C646.984 796.192 638.726 799.456 630 801.848C601.008 809.795 572.341 818.32 544 828.344C537.255 830.73 530.103 833.321 524.001 837.09C521.892 838.393 518.323 840.365 517.921 843.111C517.107 848.675 525.755 845.046 528 844.659C538.64 842.823 547.71 839.776 558 836.333C568.737 832.741 579.766 827.659 591 826C581.588 831.012 570.787 833.403 561.004 837.72C556.156 839.859 551.631 842.126 553 848C561.27 845.859 569.788 845.437 578 843.265C585.291 841.337 592.489 837.753 600 837L598 843C602.423 843.962 606.525 843.059 611 843.004C630.613 842.763 649.499 835.362 669 835C659.617 840.832 646.831 844.014 636 845.916C630.299 846.917 622.902 846.058 618.233 849.993C613.893 853.651 617.255 857.595 622.001 857.802C629.744 858.139 638.467 856.23 646 854.576C675.39 848.12 706.703 840.106 734 827.219C742.069 823.41 749.722 818.588 756.999 813.431C759.52 811.644 764.134 808.803 762.673 805.09C761.414 801.89 757.199 800.211 754 800.29C750.859 800.367 748.032 802.006 745 802.622C738.694 803.903 733.086 804.583 727 807C710.032 813.74 691.788 816.867 674 820.661C653.845 824.96 633.445 830.36 613 833C619.108 829.883 625.692 828.04 632 825.421C652.745 816.806 674.311 808.783 694 798C686.881 790.051 675.377 794.769 667 798M266 796L265 797L266 796M1214 801L1213 802L1214 801M253 802L252 803L253 802M1214 803L1213 804L1214 803M213 805L212 806L213 805M1211 805L1210 806L1211 805M1213 808L1212 809L1213 808M213 809L212 810L213 809M1234 810L1235 811L1234 810M212 813C211.582 815.689 211.283 816.554 209 818C209.852 816.017 210.539 814.563 212 813M249 819L248 820L249 819M711 860C718.185 858.626 728.283 855.962 730 865C735.514 864.204 744.016 865.291 748.896 862.741C752.638 860.785 754.447 856.06 757.185 853.015C760.513 849.313 764.846 846.819 768 843L765 844C763.637 839.427 761.867 836.769 757 836C760.157 832.045 770.758 824.711 761.786 820.117C756.912 817.622 749.2 821.937 745 824.167C735.345 829.295 725.935 835.68 717.961 843.174C712.776 848.047 708.902 852.694 711 860M209 820L208 821L209 820M1091 823L1092 824L1091 823M1093 823L1094 824L1093 823M596 824C594.307 825.339 593.149 825.66 591 826C592.673 824.849 594 824.415 596 824M252 825L251 826L252 825M208 827L207 828L208 827M919 840L918 841C911.908 838.78 905.52 837.854 900.059 842.189C897.348 844.341 895.236 847.341 896.863 850.856C898.247 853.847 901.388 853.852 904.004 855.16C907.523 856.919 910.688 859.806 913.714 862.293C924.831 871.428 935.927 884.71 950 889.301C956.353 891.374 963.505 890.278 970 890C964.23 875.576 948.346 866.912 937 857C952.437 863.62 966.635 874.982 979 886.17C989.688 895.84 1000.09 906.744 1016 903C1014.25 896.655 1010.84 893.995 1006.32 889.536C999.652 882.954 991.428 875.632 986 868C1000.27 876.809 1011.62 891.586 1027 898.481C1030.91 900.233 1034.87 900.191 1039 900.917C1043.68 901.74 1048.29 902.901 1053 902C1051.88 898.424 1051.29 895.712 1052 892C1061.76 896.319 1074.42 898.382 1085 899.636C1087.35 899.914 1089.68 899.179 1092 899.472C1096.8 900.078 1105.09 904.868 1108.3 908.47C1110.6 911.045 1112.58 915.557 1112.78 919C1112.92 921.566 1111.78 924.198 1112.64 926.714C1114.34 931.703 1118.47 936.377 1121 941C1136.76 940.127 1135.34 922.011 1133 910C1132.29 906.364 1132.06 901.416 1129.44 898.568C1127.2 896.148 1123.82 895.403 1121.61 892.857C1117.48 888.095 1115.34 880.304 1108.99 877.897C1104.88 876.345 1100.89 879.409 1097 877.872C1091.18 875.571 1087.69 869.089 1082 866.433C1072.73 862.104 1060.89 863.781 1051 863C1053.53 867.188 1056.18 873.075 1060.33 875.865C1066.58 880.073 1074.1 880.759 1079 887C1070.13 884.948 1060.61 881.48 1053 876.403C1047.08 872.452 1041.57 866.094 1035 863.343C1032.13 862.139 1029.01 862.849 1026 862.533C1019.98 861.903 1012.8 861.14 1007 859.613C1000.34 857.857 993.213 856.046 987 853.019C980.536 849.869 974.959 845.047 968 843C967.782 844.686 967.776 845.316 968 847C964.79 846.359 963.156 845.458 961 843L959 843C958.014 844.478 958 844.203 958 846C951.979 843.32 946.122 838.701 941 834.536C938.544 832.539 936.16 829.626 933 828.773C925.825 826.836 917.457 832.654 919 840M207 833L207 836C206.304 834.446 206.304 834.554 207 833M248 833L247 834L248 833M607 834L607 836C605.365 835.455 605.545 835.635 605 834L607 834M1093 836L1094 837L1093 836M1095.67 836.333C1095.22 836.777 1096.28 836.722 1096.33 836.667C1096.78 836.222 1095.72 836.278 1095.67 836.333M1235 850C1231.01 847.272 1230.05 841.533 1229 837C1235.84 838.943 1236.15 843.795 1235 850M245 841L244 842L245 841M175 886C172.043 882.999 168.732 883.567 167.434 888.041C166.082 892.698 166.758 899.202 167.159 903.996C168.709 922.545 174.85 941.383 174.821 960C174.811 966.753 171.896 973.348 171 980C165.795 978.489 161.823 973.72 158 969.985C149.383 961.566 141.403 952.704 134.265 943C130.584 937.994 125.555 928.495 119 927.047C111.836 925.465 107.815 934.198 108.852 940C109.456 943.379 111.461 946.212 113.345 949C126.562 968.563 144.146 984.024 163 998C160.62 1008.02 154.715 1016.96 152.054 1027C149.064 1038.28 150.998 1050.57 155.771 1061C158.2 1066.31 161.371 1073.33 167.003 1075.95C171.839 1078.2 174.942 1073.38 174.696 1069C174.54 1066.23 173.124 1063.72 172.662 1061C171.211 1052.48 171.664 1043.72 177.159 1036.93C179.476 1034.06 183.396 1029.35 187.699 1030.71C192.932 1032.36 192.847 1039.85 194.595 1044C199.903 1056.6 206.999 1067.88 207 1082C207.003 1124.77 199.23 1167.51 195.17 1210C194.219 1219.95 194 1230.01 194 1240C194 1246.24 194.777 1252.99 193 1259C176.156 1255.82 161.199 1248.47 145 1243C146.733 1236.76 151.999 1232.04 154.535 1226C159.418 1214.38 158.536 1204.09 157 1192C162.059 1192 166.965 1191.54 172 1191.23C174.18 1191.09 177.434 1191.4 179.049 1189.57C180.734 1187.66 179.032 1182.99 178.157 1181C177.396 1179.28 176.3 1177.69 174.811 1176.51C170.425 1173.03 159.742 1174.96 156.978 1169.64C153.922 1163.75 161.711 1157.44 162.282 1151.96C162.487 1149.99 161.903 1147.86 161.319 1146C157.497 1133.83 145.302 1136.32 139 1145L136 1145C131.486 1136.42 126.85 1128.1 123.425 1119C121.202 1113.09 120.031 1106.81 117.532 1101C115.646 1096.61 111.672 1093.37 110.133 1088.91C108.721 1084.81 109.006 1080.24 108.195 1076C106.466 1066.96 104.098 1057.85 101.573 1049C98.2396 1037.32 94.0487 1025.88 91.4244 1014C85.0048 984.935 82.7088 954.677 83.9606 925C84.7128 907.168 85.0804 891.336 90 874C90.6848 875.248 90.7488 875.548 91 877C95.9252 867.199 97.0482 855.77 106.015 848.34C114.177 841.577 125.141 841.888 135 842.83C149.958 844.26 164.795 846.421 175.674 858.171C181.832 864.821 187.594 883.28 175 886M970 847L969 848L970 847M201 852C201.683 853.506 201.826 854.315 202 856C201.046 854.419 200.803 853.811 201 852M1113 853L1114 854L1113 853M1123 853L1124 854L1123 853M1125 853L1126 854L1125 853M1139 853L1140 854L1139 853M1234 853C1236.12 858.052 1234.91 863.675 1235.21 869C1235.88 880.974 1236.93 892.983 1237 905C1234.72 899.718 1235.3 893.639 1234.91 888C1234.16 876.996 1231.09 863.78 1234 853M204 855L203 856L204 855M202 858L201 859L202 858M1093 860C1094.51 860.683 1095.31 860.826 1097 861C1095.49 860.317 1094.69 860.174 1093 860M202 865L203 869C201.854 867.359 201.607 866.924 202 865M206 865C206.742 867.684 207.14 869.122 205 871C205.175 868.869 205.288 866.993 206 865M1098 866C1102.35 869.999 1111.91 870.604 1115 865L1098 866M451 866L450 867L451 866M457 870C455.782 872.118 455.133 872.845 453 874C454.154 871.751 454.751 871.154 457 870M208 872L207 873L208 872M213 874L214 876C212.737 875.029 212.608 875.306 213 874M204 875L203 876L204 875M207 876C208.694 878.542 207.929 878.518 210 878C210.392 879.859 211.175 881.275 212 883L210 882C210.868 884.355 211.574 886.531 212 889C208.426 886.554 205.83 880.217 207 876M203 878C205.086 880.086 205.021 881.349 202 882C202.193 880.474 202.369 879.372 203 878M209 881L210 882L209 881M217 881L216 882L217 881M214 882L213 883L214 882M206 883L205 884L206 883M1096 883L1095 884L1096 883M204 884L205 886L203 886C203 884.147 202.7 884.65 204 884M1080 887L1079 888L1080 887M231 888L230 889L231 888M1046 890C1043.2 890.976 1041.69 890.4 1040 888C1042.3 888.397 1043.9 888.957 1046 890M216 889L217 895C214.819 893.104 213.931 891.741 213 889L216 889M229 892.333L229.333 892.667C228.84 892.831 228.227 892.333 229 892.333M236 892L236 894L234 894L234 892L236 892M234 895C233.614 897.143 233.255 898.25 232 900C231.014 898.521 231 898.797 231 897L234 895M229 896L228 897L229 896M216 897L215 901C214.317 899.494 214.174 898.685 214 897L216 897M207 899L206 903C205.317 901.494 205.174 900.685 205 899L207 899M208 903L209 908C205.593 907.27 205.746 905.254 208 903M1257 937L1257 940C1257.7 938.446 1257.7 938.554 1257 937M442 985C437.131 987.28 432.37 989.369 427 990C430.583 992.271 434.105 990.158 438 989.236C447.61 986.962 456.671 984.403 466 981.298C478.002 977.303 488.289 970.341 500 965.951C514.513 960.512 529.687 959.049 545 958.999C551.108 958.98 557.046 958.367 563 960C557.367 964.917 558.933 969.037 555.973 975C554.332 978.306 551.08 980.495 549.742 984C547.465 989.967 548.552 999.919 550 1006C542.038 1006.87 533.332 1003.7 526 1000.8C510.226 994.548 496.491 984.994 479 984.598C469.92 984.393 454.896 993.448 462 1003C465.582 1001.8 469.754 999.73 473.576 999.855C478.843 1000.03 484.335 1003.6 489 1005.77C496.833 1009.4 504.763 1012.27 513 1014.82C534.959 1021.63 559.125 1023 582 1023C591.017 1023 599.95 1021.82 608.911 1020.95C612.815 1020.57 617.427 1021.28 620 1018C622.715 1018.3 625.272 1018.16 628 1018C625.253 1010.82 624.59 1001.14 625.722 993.424C626.37 989.012 628.298 984.474 628.211 980.001C628.134 976.084 625.864 972.725 625 969C636.675 972.022 657.259 975.116 661.182 989C662.858 994.93 657.318 999.804 659 1006C665.713 1004.4 673.412 1004.67 678.811 999.657C687.15 991.918 681.482 977.845 673.906 971.532C670.747 968.901 666.739 967.444 663 965.85C650.24 960.412 636.453 958.547 623 955.576C599.371 950.357 575.2 944.747 551 943.089C529.766 941.635 505.88 946.098 487 956.12C480.731 959.447 476.242 966.051 470 968.897C466.814 970.35 462.445 969.792 459 970.272C451.249 971.351 443.686 973.171 436 974.611C426.92 976.313 417.569 978.107 409.015 981.7C405.231 983.29 401.403 987.168 404.322 991.486C406.547 994.778 411.743 993.899 415 993.177C424.312 991.114 432.264 986.257 442 985M73 956L72 957L73 956M1259 957L1260 958L1259 957M78 958L77 959L78 958M1260 959L1261 960L1260 959M586 961C593.864 963.257 602.135 963.506 610 966C608.738 969.219 606.246 971.805 605.214 975.089C602.395 984.062 602.193 995.645 602 1005C598.845 1004.93 593.475 1005.26 591.27 1002.5C589.435 1000.21 589.851 994.802 589.424 991.996C588.334 984.847 588.39 978.104 587.881 971C587.632 967.522 585.712 964.452 586 961M79 962L79 967C77.0986 965.212 77.582 964.103 79 962M78.6667 969.667C78.7223 969.722 78.7777 970.778 78.3333 970.333C78.2778 970.278 78.2222 969.222 78.6667 969.667M79 972C79.9857 973.479 80 973.203 80 975C78.2338 974.021 78.0445 973.778 79 972M80 976L81 984C79.0068 981.369 78.725 979.069 80 976M444 984.333C444.773 984.333 444.16 984.831 443.667 984.667L444 984.333M81 985C81.8904 988.305 81.9564 991.577 82 995C79.8126 992.075 79.6002 988.379 81 985M1105 1050C1104.42 1047.48 1103.73 1044.61 1101.4 1043.05C1099.08 1041.5 1095.55 1042.59 1092.96 1042.66C1084 1042.91 1075.11 1041.92 1068 1048C1068.93 1044.08 1070.03 1039.54 1071.98 1036C1074 1032.36 1077.22 1029.81 1079 1026L1076 1027C1077.42 1022.8 1078.41 1018.39 1079 1014C1086.56 1017.67 1090.4 1025.21 1099 1027.84C1106.35 1030.09 1109.8 1027.68 1106.74 1020C1106.05 1018.27 1105.2 1016.6 1104.24 1015C1094.03 998.082 1078.47 993.121 1060 990.576C1027.82 986.144 993.561 989.974 963 1000.66C953.645 1003.93 945.214 1008.66 937 1014.17C932.981 1016.86 928.228 1019.8 925.617 1024C924.239 1026.22 924.552 1028.63 923.711 1031C923.004 1032.99 921.155 1034.72 920.916 1036.85C920.456 1040.96 927.611 1040.06 930 1039.83C934.35 1039.41 938.616 1038.14 943 1038.05C950.131 1037.92 957.914 1039.4 965 1040.29C1011.95 1046.13 1057.91 1065.32 1105 1050M424.667 991.333C424.222 991.778 425.278 991.722 425.333 991.667C425.778 991.222 424.722 991.278 424.667 991.333M632 1017C637.632 1015.84 646.019 1016.92 650.856 1013.86C656.468 1010.3 654.793 1000.39 649.701 997.013C643.611 992.969 635.022 999.158 632.778 1005.05C631.438 1008.57 632.008 1013.29 632 1017M83 996L82 997L83 996M84 998L84 1002C82.7571 1000.1 82.7571 999.903 84 998M225.667 999.667C225.722 999.722 225.778 1000.78 225.333 1000.33C225.278 1000.28 225.222 999.222 225.667 999.667M79 1000L78 1001L79 1000M767 1000C768.297 1001.59 768.535 1002.02 769 1004C767.141 1002.73 766.631 1002.22 767 1000M1061 1005C1058.28 1010.87 1052.7 1014.94 1050.23 1021C1048.19 1026 1049.51 1030.92 1047 1036C1038.07 1033.28 1037.6 1024.57 1040 1017C1038.52 1017.99 1038.8 1018 1037 1018C1035.82 1014.31 1034.53 1010.85 1034 1007C1032.12 1006.82 1030.8 1006.56 1029 1006L1029 1004C1038.86 1001.65 1051.33 1001.94 1061 1005M83.6667 1004.67C83.7223 1004.72 83.7777 1005.78 83.3333 1005.33C83.2778 1005.28 83.2222 1004.22 83.6667 1004.67M226 1004L227 1005L226 1004M1006 1005L1007 1006C1007.4 1015.22 1014.22 1023.43 1015 1033C994.332 1031.31 975.105 1022.51 954 1023C955.737 1018.14 961.635 1016.81 966 1014.75C978.881 1008.66 992.218 1007.38 1006 1005M80.6667 1008.67C80.7223 1008.72 80.7777 1009.78 80.3333 1009.33C80.2778 1009.28 80.2222 1008.22 80.6667 1008.67M759 1008L758 1009L759 1008M86 1009L86 1011L84 1011C84.545 1009.36 84.3649 1009.55 86 1009M785 1010C784.455 1011.64 784.635 1011.45 783 1012C783.545 1010.36 783.365 1010.55 785 1010M1082 1011L1081 1012L1082 1011M1246 1011L1246 1013L1244 1013L1244 1011L1246 1011M82 1013L81 1014L82 1013M176 1013L175 1014L176 1013M86 1015L85 1016L86 1015M200 1017C202.525 1019.7 203.958 1022.46 205 1026C201.136 1024.68 199.168 1021.02 200 1017M1242 1022L1242 1025C1235.23 1024.46 1227.54 1023.62 1221 1022C1226.57 1018.78 1235.76 1021.73 1242 1022M1220 1021L1219 1022L1220 1021M89 1022L88 1023L89 1022M91 1024L90 1028C89.447 1025.99 89.697 1025.67 91 1024M654 1044C653.392 1041.3 652.49 1037.8 649.62 1036.64C645.638 1035.03 638.961 1037.49 635 1038.41C626.928 1040.27 618.236 1041.12 610 1042.05C592.748 1043.99 575.388 1046.64 558 1045.96C535.098 1045.07 509.805 1038.46 488 1031.66C478.724 1028.77 468.745 1025.23 459.015 1024.49C453.324 1024.05 448.316 1024.26 444.449 1029.17C439.156 1035.9 447.691 1039.75 453 1041.29C467.863 1045.59 483.116 1047.95 498 1051.85C534.341 1061.36 572.184 1061.12 609 1055.08C624.887 1052.47 639.176 1050.5 654 1044M865 1380C868.962 1380 875.031 1381.13 878.532 1378.97C881.88 1376.91 883.592 1372.32 885.373 1369C890.623 1359.23 895.282 1348.81 897.87 1338C902.26 1319.65 900.113 1299.67 900.54 1281C901.071 1257.83 902.366 1234.08 900.17 1211C899.431 1203.24 899.948 1195.6 898 1188C918.513 1195.66 938.717 1192.03 960 1192C1003.16 1191.93 1046.12 1190.86 1089 1185.71C1103.45 1183.98 1117.69 1181.34 1132 1178.74C1137.37 1177.76 1144.92 1177.22 1146 1171C1139.87 1172.2 1133.25 1170.79 1127 1170.71C1119.44 1170.61 1111.52 1171.45 1104 1172.17C1056.52 1176.71 1008.7 1180.05 961 1177.96C948.447 1177.41 934.287 1177.74 922 1175.04C912.958 1173.05 906.677 1167.7 897 1170C892.925 1152.89 891.751 1135.46 884.775 1119C876.24 1098.86 862.106 1081.86 857.666 1060C855.718 1050.41 859.481 1041.31 858.852 1032C858.502 1026.83 851.825 1023.11 847.854 1027.53C846.147 1029.43 845.643 1032.61 845.015 1035C842.91 1043.01 843.459 1052.92 845 1061C847.518 1074.2 850.402 1085.99 856.782 1098C864.203 1111.97 874.49 1124.48 878.711 1140C890.714 1184.12 890.057 1232.6 889.094 1278C888.683 1297.39 891.261 1318.03 886.244 1337C882.035 1352.91 872.868 1365.87 865 1380M86 1027L85 1028L86 1027M87 1030L86 1031L87 1030M91 1031L90 1032L91 1031M92 1033C93.1444 1034.92 93.1742 1035.73 93 1038C92.0316 1036.16 91.7265 1035.06 92 1033M1250 1034L1249 1035L1250 1034M1221 1036C1222.28 1037.92 1222.28 1037.08 1221 1039C1220.29 1037.65 1220.19 1037.27 1221 1036M1250 1037C1249.32 1038.58 1249.2 1038.78 1248 1040C1248.68 1038.42 1248.81 1038.22 1250 1037M94.6667 1040.67C94.7223 1040.72 94.7777 1041.78 94.3333 1041.33C94.2778 1041.28 94.2222 1040.22 94.6667 1040.67M1249 1043L1248 1044L1249 1043M96 1044.33L96.3333 1044.67C95.8398 1044.83 95.2266 1044.33 96 1044.33M645 1044C644.02 1045.78 644.092 1045.59 642 1046C643.223 1044.8 643.42 1044.68 645 1044M1074 1047C1073.69 1049.12 1073.62 1049.69 1072 1051C1072.56 1049.25 1072.92 1048.46 1074 1047M99 1051L98 1052L99 1051M99 1055.33C99.7734 1055.33 99.1602 1055.83 98.6667 1055.67L99 1055.33M1056 1088C1054.51 1085.34 1053.99 1081.74 1051.68 1079.65C1049.25 1077.44 1045.92 1077.27 1043 1076.13C1037.65 1074.02 1033.74 1072.27 1028 1071.2C1007.82 1067.42 987.134 1067.53 967 1063.28C957.083 1061.19 939.237 1052.49 934.619 1067C933.285 1071.18 936.471 1073.6 940.005 1074.9C946.6 1077.31 954.08 1078.4 961 1079.42C981.894 1082.52 1003 1084.07 1024 1086.17C1034.07 1087.18 1046.12 1090.92 1056 1088M96 1059L95 1060L96 1059M221 1065L220 1066L221 1065M226 1067C225.455 1068.64 225.635 1068.45 224 1069L224 1067L226 1067M632 1069.61C619.656 1071.88 607.865 1076.95 596 1081.14C581.159 1086.39 565.958 1090.64 551 1095.52C538.032 1099.75 525.434 1105.37 512 1108C505.891 1109.19 494.499 1107.91 489.613 1111.86C486.302 1114.53 482.452 1121.99 487.233 1124.97C490.524 1127.03 495.471 1125.66 499 1125.08C507.34 1123.71 515.804 1122.84 524 1120.73C535.632 1117.73 546.625 1112.7 558 1108.89C573.322 1103.76 588.828 1099.09 604 1093.53C611.835 1090.66 619.403 1087.61 627 1084.16C630.909 1082.38 635.594 1080.53 638.522 1077.24C642.625 1072.63 636.358 1068.81 632 1069.61M1241 1084L1241 1089C1239.65 1086.82 1239.62 1086.14 1241 1084M997.04 1112.13C995.267 1112.88 993.924 1114.48 992.854 1116.02C985.961 1125.94 994.176 1132.87 1003 1137.18C1022.29 1146.61 1045.11 1148.34 1066 1151.75C1071.32 1152.62 1076.61 1153.69 1082 1154.02C1084.01 1154.15 1086.81 1154.84 1088.67 1153.8C1094.22 1150.7 1087.64 1140.41 1083.83 1138.74C1078.94 1136.59 1072.25 1136.7 1067 1135.74C1050.5 1132.71 1033.29 1131.43 1018 1123.97C1012.84 1121.45 1008.93 1117.98 1004.58 1114.35C1002.46 1112.6 999.858 1110.94 997.04 1112.13M737 1137L738 1138L737 1137M1130 1153L1129 1154L1130 1153M685 1154L684 1155L685 1154M895 1184L898 1188L897 1189C895.447 1187.23 894.843 1186.34 895 1184M151 1208L150 1209L151 1208M149 1213L148 1214L149 1213M677 1360L676 1364C689.384 1365.96 702.379 1371.41 716 1372C715.067 1366.97 714.46 1361.84 716.653 1357C720.512 1348.49 732.507 1344.89 741 1347.16C760.478 1352.37 773.846 1370.79 792 1378.77C799.489 1382.07 810.927 1380 819 1380C809.443 1372.07 797.122 1366.7 787 1359.24C773.655 1349.41 758.297 1330.57 740 1331.27C730.422 1331.63 715.404 1334.73 710.688 1344C708.895 1347.53 708.332 1352.09 708.16 1356C708.076 1357.9 708.603 1360.57 706.593 1361.69C704.046 1363.1 699.593 1361.5 697 1360.87C688.994 1358.92 681.575 1356.15 674 1353C675.754 1352.42 674.995 1352.33 677 1353C674.817 1351.57 673.625 1351.67 671 1352C672.534 1350.98 672.402 1351.2 673 1350C663.882 1342.97 652.148 1335.08 649.393 1323C647.032 1312.65 652.127 1303.45 657.424 1295C669.51 1275.72 692.037 1254.92 715 1250C710.783 1246.81 705.599 1248.12 701 1250.1C691.827 1254.03 683.653 1259.02 676 1265.44C657.382 1281.06 625.502 1312.37 646.325 1338C650.116 1342.67 654.151 1346.76 658.997 1350.31C664.184 1354.1 670.734 1358.53 677 1360M170 1253L169 1254L170 1253M939.069 1279.74C935.094 1281.35 933.888 1287.12 934.484 1291C935.89 1300.16 944.231 1306.99 941.762 1317.18C939.813 1325.23 935.313 1332.35 928.996 1337.67C925.05 1341 919.705 1343.13 916.563 1347.33C914.672 1349.86 912.422 1357.06 918.059 1356.35C921.65 1355.91 925.799 1353.1 929 1351.48C947.311 1342.15 956.021 1325.15 955.664 1305C955.518 1296.71 952.016 1274.49 939.069 1279.74M570 1380C574.437 1380 580.466 1381.06 584.576 1379.14C590.529 1376.37 595.305 1369.87 599.439 1365C605.131 1358.29 611.153 1351.08 617.514 1345C623.449 1339.33 636.172 1331.99 631 1323C626.553 1323.53 622.21 1323.37 618 1325.21C610.496 1328.5 605.142 1335.06 599.834 1341C594.438 1347.04 588.66 1352.81 583.439 1359C578.359 1365.02 571.076 1371.94 570 1380M646 1329L645 1330L646 1329M647 1331L646 1332L647 1331M648 1333C649.975 1334.89 651.508 1336.71 653 1339C650.592 1337.26 648.698 1335.9 648 1333M657 1341.33L657.333 1341.67C656.84 1341.83 656.227 1341.33 657 1341.33M648 1344C652.683 1351.46 662.222 1359.3 671 1361C667.609 1357.39 663.066 1355.67 659 1352.91C655.075 1350.24 651.871 1346.72 648 1344M659 1344L658 1345L659 1344M664 1345C666.25 1346.86 668.53 1348.44 671 1350C667.884 1350.03 663.914 1348.45 664 1345M752 1345.33C752.773 1345.33 752.16 1345.83 751.667 1345.67L752 1345.33M661 1346L662 1348C660.737 1347.03 660.608 1347.31 661 1346M667 1350L668 1352C666.737 1351.03 666.608 1351.31 667 1350M672 1353L671 1354L672 1353M680 1354L681 1355L680 1354M677 1356L676 1357L677 1356M680 1357L679 1358L680 1357M672 1361L673 1362L672 1361M680 1361.33C680.773 1361.33 680.16 1361.83 679.667 1361.67L680 1361.33M674 1362L675 1363L674 1362M683 1362L682 1363L683 1362z"/>
</svg>
